Coordinates
version=1
nRows=11
nColumns=40
inDegrees=yes

Units are S.I. units (second, meters, Newtons, ...)
Angles are in degrees.

endheader
time	pelvis_tilt	pelvis_list	pelvis_rotation	pelvis_tx	pelvis_ty	pelvis_tz	hip_flexion_r	hip_adduction_r	hip_rotation_r	knee_angle_r	knee_angle_r_beta	ankle_angle_r	subtalar_angle_r	mtp_angle_r	hip_flexion_l	hip_adduction_l	hip_rotation_l	knee_angle_l	knee_angle_l_beta	ankle_angle_l	subtalar_angle_l	mtp_angle_l	lumbar_extension	lumbar_bending	lumbar_rotation	arm_flex_r	arm_add_r	arm_rot_r	elbow_flex_r	pro_sup_r	wrist_flex_r	wrist_dev_r	arm_flex_l	arm_add_l	arm_rot_l	elbow_flex_l	pro_sup_l	wrist_flex_l	wrist_dev_l
     39.64250000	     -2.78621936	     -5.52315797	     -0.35170316	      1.08102328	      0.93689879	      0.39754060	     30.81091667	     -6.19543940	     -5.35102712	     53.90223724	     53.90223724	      1.64017362	    -10.16695118	     -1.12904118	     12.41840720	     -6.02256803	     -9.53774199	     20.82287401	     20.82287401	     13.85321501	     -8.48772856	      0.04140011	    -10.71705465	      5.73803946	      0.89683351	     -4.64019636	    -12.26291755	     -3.95684130	     25.34659227	     46.34927489	      0.00000000	      0.00000000	     22.69322987	    -20.32326640	     -7.69695488	     52.10713190	     46.84648391	      0.00000000	      0.00000000
     39.65557143	     -2.89706401	     -5.55355005	     -0.73203447	      1.08010610	      0.93729821	      0.39783601	     30.86507441	     -5.99641999	     -5.65406437	     50.82405808	     50.82405808	      1.79177739	     -9.90930667	     -0.87057796	     11.85814775	     -6.06117539	     -9.92220085	     20.25509809	     20.25509809	     13.89487155	     -8.35767147	     -0.11664661	    -10.68775483	      5.75134037	      0.88312138	     -5.87260534	    -12.17156952	     -4.01935278	     25.23609260	     46.34689962	      0.00000000	      0.00000000	     23.26340951	    -20.71442364	     -8.02371931	     53.14025892	     46.89465750	      0.00000000	      0.00000000
     39.66864286	     -2.91997640	     -5.56819409	     -1.15240487	      1.07926279	      0.93770881	      0.39833121	     30.67698136	     -5.75012105	     -5.96376033	     47.44453082	     47.44453082	      1.84761460	     -9.41139698	     -0.71463918	     11.15023858	     -6.08977739	    -10.38501218	     19.61201392	     19.61201392	     13.92204990	     -8.16552117	     -0.47822105	    -10.80474944	      5.70109896	      1.03526138	     -7.16152413	    -12.12366017	     -4.14859072	     25.41219645	     46.33649557	      0.00000000	      0.00000000	     23.71716584	    -20.94439809	     -8.47267049	     54.66862399	     46.95882231	      0.00000000	      0.00000000
     39.68171429	     -3.15370849	     -5.54253286	     -1.54350114	      1.07832891	      0.93761322	      0.39897955	     30.62402610	     -5.50638745	     -6.30890006	     43.90537344	     43.90537344	      1.91657564	     -8.69860489	     -0.45474248	     10.79379451	     -6.09368201	    -10.78577030	     19.16374544	     19.16374544	     13.95373200	     -8.08694072	     -0.73572875	    -10.65580316	      5.63172148	      0.98312228	     -8.20851443	    -11.99446179	     -4.23247572	     25.50093687	     46.32839826	      0.00000000	      0.00000000	     24.13905950	    -21.36752475	     -8.83276885	     55.65604913	     47.00743336	      0.00000000	      0.00000000
     39.69478571	     -3.21066989	     -5.46808209	     -1.97814936	      1.07756323	      0.93756032	      0.39976139	     30.20866546	     -5.26012920	     -6.66959141	     40.08714686	     40.08714686	      1.59197021	     -7.72293180	     -1.31206596	     10.15409949	     -6.06512270	    -11.37577874	     18.56142578	     18.56142578	     13.56702189	     -7.92879545	     -2.26763187	    -10.81205754	      5.46492282	      0.86350222	     -9.66955515	    -11.99800553	     -4.72173530	     27.41758979	     46.26560807	      0.00000000	      0.00000000	     23.67123151	    -21.66287329	    -10.18583746	     58.82999257	     47.16474403	      0.00000000	      0.00000000
     39.70785714	     -3.41836203	     -5.40612884	     -2.34774023	      1.07673769	      0.93725739	      0.40065936	     29.85542553	     -4.93143939	     -7.02409899	     36.21122777	     36.21122777	      1.55155062	     -6.51230007	     -0.82185072	      9.79876237	     -6.02868488	    -11.68389470	     18.17995097	     18.17995097	     13.67449615	     -7.90615516	     -2.40367877	    -10.66288029	      5.35677611	      0.80438787	    -10.36073477	    -11.91230016	     -4.70664375	     27.29101151	     46.26314436	      0.00000000	      0.00000000	     24.11362764	    -21.99169823	    -10.38961744	     59.27683094	     47.19272179	      0.00000000	      0.00000000
     39.72092857	     -3.51869569	     -5.28239021	     -2.71225438	      1.07608597	      0.93695752	      0.40167237	     29.28150057	     -4.65099406	     -7.46753638	     32.31925792	     32.31925792	      1.43364471	     -4.91920343	     -0.28354189	      9.31296015	     -5.94368507	    -12.11201951	     17.79731745	     17.79731745	     13.79601867	     -7.77201054	     -2.63886813	    -10.61923732	      5.15134184	      0.83766122	    -11.01141344	    -11.84433524	     -4.71680639	     27.28163141	     46.25772343	      0.00000000	      0.00000000	     24.50985639	    -22.20963890	    -10.62875576	     59.91526639	     47.22570833	      0.00000000	      0.00000000
     39.73400000	     -3.49744254	     -5.06900739	     -3.07451087	      1.07561668	      0.93665213	      0.40276962	     28.51104162	     -4.48643724	     -8.08243769	     28.56154331	     28.56154331	      1.36389974	     -2.73184063	      0.27081108	      8.65131758	     -5.77656326	    -12.72700589	     17.35253058	     17.35253058	     13.85683808	     -7.38689502	     -3.17712926	    -10.76534324	      4.83592929	      0.91095010	    -11.63944568	    -11.75761560	     -4.77947301	     27.62203173	     46.24068859	      0.00000000	      0.00000000	     24.77449412	    -22.34044136	    -11.07189252	     60.96015170	     47.28060980	      0.00000000	      0.00000000
     39.74707143	     -3.61842065	     -4.89140293	     -3.34436469	      1.07529669	      0.93600032	      0.40396697	     27.81996825	     -4.17978830	     -8.55339336	     24.97575052	     24.97575052	      1.16760283	     -1.05207995	      1.12571806	      8.23068545	     -5.64213021	    -13.07060995	     17.06250197	     17.06250197	     14.02263452	     -7.19319254	     -3.54749704	    -10.61860181	      4.58687065	      0.84673739	    -12.11098659	    -11.74699556	     -4.82340349	     27.77739645	     46.23222751	      0.00000000	      0.00000000	     24.91804246	    -22.48313164	    -11.31652175	     61.49943770	     47.31041674	      0.00000000	      0.00000000
     39.76014286	     -3.59930428	     -4.59440670	     -3.61987577	      1.07526379	      0.93537723	      0.40520214	     27.07759793	     -4.09776384	     -9.36899419	     21.99255721	     21.99255721	      1.35685863	      1.31762545	      2.60358199	      7.56176515	     -5.39306931	    -13.72615581	     16.61145974	     16.61145974	     14.00476701	     -6.64574059	     -4.47651478	    -10.63055375	      4.18835055	      0.71453394	    -12.59632453	    -11.73985534	     -4.90476857	     28.45374999	     46.20260065	      0.00000000	      0.00000000	     24.82075306	    -22.52965482	    -11.98154639	     62.55199242	     47.38105030	      0.00000000	      0.00000000
     39.77321429	     -3.69743651	     -4.31972525	     -3.86270626	      1.07520856	      0.93451607	      0.40659258	     26.46045126	     -3.84549027	     -9.74898171	     19.34966471	     19.34966471	      1.15684498	      2.51816053	      3.53224285	      7.13613780	     -5.15295697	    -14.04535410	     16.36760776	     16.36760776	     14.21902057	     -6.54241436	     -4.75145372	    -10.49595559	      3.85198599	      0.69718296	    -12.68350580	    -11.60305351	     -4.87939287	     28.59130143	     46.19334155	      0.00000000	      0.00000000	     24.93437161	    -22.62323481	    -12.11787141	     62.77307924	     47.39578161	      0.00000000	      0.00000000
